<svg width="30" height="30" viewBox="0 0 30 30" fill="none" xmlns="http://www.w3.org/2000/svg">
<circle cx="15" cy="15" r="15" fill="white"/>
<path fill-rule="evenodd" clip-rule="evenodd" d="M6 7.73077C6 6.77446 6.77538 6 7.73077 6H12.5769C13.5332 6 14.3077 6.77538 14.3077 7.73077V19.8462C14.3077 20.9478 13.8701 22.0044 13.0911 22.7834C12.3121 23.5624 11.2555 24 10.1538 24C9.05218 24 7.99563 23.5624 7.21663 22.7834C6.43764 22.0044 6 20.9478 6 19.8462V7.73077ZM10.1538 20.8846C10.4293 20.8846 10.6934 20.7752 10.8882 20.5805C11.0829 20.3857 11.1923 20.1216 11.1923 19.8462C11.1923 19.5707 11.0829 19.3066 10.8882 19.1119C10.6934 18.9171 10.4293 18.8077 10.1538 18.8077C9.87843 18.8077 9.61429 18.9171 9.41954 19.1119C9.22479 19.3066 9.11539 19.5707 9.11539 19.8462C9.11539 20.1216 9.22479 20.3857 9.41954 20.5805C9.61429 20.7752 9.87843 20.8846 10.1538 20.8846Z" fill="black"/>
<path d="M13.8176 24H22.2693C23.2256 24 24.0001 23.2246 24.0001 22.2692V17.4231C24.0001 16.4668 23.2247 15.6923 22.2693 15.6923H22.1401L14.0706 23.7628C13.9875 23.8449 13.9044 23.9243 13.8176 24ZM15.6813 20.1923L21.6573 14.2163C21.9817 13.8917 22.164 13.4516 22.164 12.9928C22.164 12.5339 21.9817 12.0938 21.6573 11.7692L18.2309 8.34184C17.9063 8.01744 17.4662 7.83521 17.0073 7.83521C16.5484 7.83521 16.1083 8.01744 15.7838 8.34184L15.6915 8.43322V19.8461C15.6915 19.9625 15.6887 20.0778 15.6822 20.1923H15.6813Z" fill="black"/>
</svg>
